<svg width="20" height="23" viewBox="0 0 20 23" fill="none" xmlns="http://www.w3.org/2000/svg">
<path d="M2.77289 22.4173C2.77289 22.4173 0.964844 22.4173 0.964844 20.6092C0.964844 18.8012 2.77289 13.377 10.0051 13.377C17.2373 13.377 19.0454 18.8012 19.0454 20.6092C19.0454 22.4173 17.2373 22.4173 17.2373 22.4173H2.77289ZM10.0051 11.5689C11.4437 11.5689 12.8233 10.9975 13.8406 9.98025C14.8578 8.96303 15.4293 7.58337 15.4293 6.1448C15.4293 4.70622 14.8578 3.32657 13.8406 2.30934C12.8233 1.29211 11.4437 0.720642 10.0051 0.720642C8.56652 0.720642 7.18687 1.29211 6.16964 2.30934C5.15242 3.32657 4.58095 4.70622 4.58095 6.1448C4.58095 7.58337 5.15242 8.96303 6.16964 9.98025C7.18687 10.9975 8.56652 11.5689 10.0051 11.5689Z" fill="#4F4F4F"/>
</svg>
