<svg width="33" height="32" viewBox="0 0 33 32" fill="none" xmlns="http://www.w3.org/2000/svg">
<rect width="33" height="32" fill="#F5F5F5"/>
<g id="homepage/aktivitaeten/desktop" clip-path="url(#clip0_180_1667)">
<rect width="1512" height="4764" transform="translate(-377 -2347)" fill="white"/>
<g id="zimmerbuchung">
<g id="jam:coffee-cup-f">
<path id="Vector" d="M3.19922 7.9003H25.5533C26.5995 7.9003 27.6029 8.31591 28.3427 9.05572C29.0825 9.79552 29.4982 10.7989 29.4982 11.8451C29.4982 12.8914 29.0825 13.8948 28.3427 14.6346C27.6029 15.3744 26.5995 15.79 25.5533 15.79H23.907C23.269 18.2715 21.7472 20.4348 19.6273 21.8739C17.5075 23.3131 14.9352 23.929 12.3934 23.6062C9.85165 23.2834 7.51505 22.044 5.82221 20.1207C4.12937 18.1974 3.19669 15.7223 3.19922 13.1601V7.9003ZM24.2384 13.1601H25.5533C25.9021 13.1601 26.2365 13.0215 26.4831 12.7749C26.7297 12.5283 26.8683 12.1939 26.8683 11.8451C26.8683 11.4964 26.7297 11.1619 26.4831 10.9153C26.2365 10.6687 25.9021 10.5302 25.5533 10.5302H24.2384V13.1601Z" fill="#4F4F4F"/>
</g>
<rect id="Rectangle 156" x="-339.343" y="-474.027" width="461.546" height="736.37" rx="5.91726" stroke="#550076" stroke-width="1.31495"/>
</g>
</g>
<defs>
<clipPath id="clip0_180_1667">
<rect width="1512" height="4764" fill="white" transform="translate(-377 -2347)"/>
</clipPath>
</defs>
</svg>
