<svg width="18" height="18" viewBox="0 0 18 18" fill="none" xmlns="http://www.w3.org/2000/svg">
<g clip-path="url(#clip0_558_4656)">
<path d="M17.2916 6.63191C17.1784 6.28183 16.8679 6.03319 16.5005 6.00008L11.5105 5.54698L9.53734 0.928541C9.39184 0.590068 9.06049 0.370972 8.69234 0.370972C8.32419 0.370972 7.99284 0.590068 7.84735 0.929332L5.87416 5.54698L0.883345 6.00008C0.516645 6.03398 0.206929 6.28183 0.0930933 6.63191C-0.020742 6.98199 0.0843875 7.36597 0.361787 7.60802L4.13365 10.916L3.02142 15.8154C2.94003 16.1756 3.07985 16.548 3.37875 16.764C3.53941 16.8801 3.72738 16.9392 3.91693 16.9392C4.08036 16.9392 4.24248 16.8952 4.38797 16.8081L8.69234 14.2355L12.9951 16.8081C13.31 16.9975 13.7069 16.9802 14.0051 16.764C14.3042 16.5473 14.4439 16.1748 14.3625 15.8154L13.2502 10.916L17.0221 7.60868C17.2995 7.36597 17.4054 6.98265 17.2916 6.63191Z" fill="#C5C5C5"/>
</g>
<defs>
<clipPath id="clip0_558_4656">
<rect width="17.2888" height="17.2888" fill="white" transform="translate(0.0488281)"/>
</clipPath>
</defs>
</svg>
