<svg width="15" height="15" viewBox="0 0 15 15" fill="none" xmlns="http://www.w3.org/2000/svg">
<g clip-path="url(#clip0_558_4600)">
<path d="M14.8747 5.99866C14.7815 5.71036 14.5258 5.50559 14.2233 5.47832L10.1138 5.10518L8.48879 1.30171C8.36897 1.02296 8.09609 0.842529 7.7929 0.842529C7.48972 0.842529 7.21684 1.02296 7.09702 1.30236L5.47202 5.10518L1.36189 5.47832C1.0599 5.50624 0.804834 5.71036 0.711086 5.99866C0.617339 6.28697 0.703917 6.60319 0.932366 6.80252L4.03865 9.52675L3.12268 13.5616C3.05565 13.8583 3.1708 14.1649 3.41696 14.3429C3.54927 14.4385 3.70406 14.4871 3.86017 14.4871C3.99476 14.4871 4.12827 14.4508 4.24809 14.3792L7.7929 12.2605L11.3364 14.3792C11.5957 14.5351 11.9226 14.5209 12.1682 14.3429C12.4145 14.1644 12.5295 13.8576 12.4625 13.5616L11.5465 9.52675L14.6528 6.80307C14.8812 6.60319 14.9685 6.28751 14.8747 5.99866Z" fill="#FFB543"/>
</g>
<defs>
<clipPath id="clip0_558_4600">
<rect width="14.238" height="14.238" fill="white" transform="translate(0.674805 0.536987)"/>
</clipPath>
</defs>
</svg>
