<svg width="18" height="18" viewBox="0 0 18 18" fill="none" xmlns="http://www.w3.org/2000/svg">
<g clip-path="url(#clip0_558_4648)">
<path d="M17.2437 6.63191C17.1306 6.28183 16.8201 6.03319 16.4527 6.00008L11.4627 5.54698L9.48948 0.928541C9.34399 0.590068 9.01264 0.370972 8.64449 0.370972C8.27634 0.370972 7.94499 0.590068 7.7995 0.929332L5.82631 5.54698L0.835494 6.00008C0.468794 6.03398 0.159077 6.28183 0.0452418 6.63191C-0.0685936 6.98199 0.0365359 7.36597 0.313935 7.60802L4.0858 10.916L2.97357 15.8154C2.89218 16.1756 3.032 16.548 3.3309 16.764C3.49156 16.8801 3.67953 16.9392 3.86908 16.9392C4.03251 16.9392 4.19462 16.8952 4.34012 16.8081L8.64449 14.2355L12.9473 16.8081C13.2621 16.9975 13.659 16.9802 13.9573 16.764C14.2563 16.5473 14.396 16.1748 14.3146 15.8154L13.2024 10.916L16.9743 7.60868C17.2517 7.36597 17.3576 6.98265 17.2437 6.63191Z" fill="#FFB543"/>
</g>
<defs>
<clipPath id="clip0_558_4648">
<rect width="17.2888" height="17.2888" fill="white"/>
</clipPath>
</defs>
</svg>
