<svg width="27" height="26" viewBox="0 0 27 26" fill="none" xmlns="http://www.w3.org/2000/svg">
<path d="M23.6974 9.47485V0.854065H21.0675V3.48396H5.28811V0.854065H2.65821V9.47617C1.09343 10.3874 0.0283203 12.0653 0.0283203 14.0035V19.2633C0.0283203 19.6121 0.166859 19.9465 0.413459 20.1931C0.660059 20.4397 0.994521 20.5783 1.34327 20.5783H2.65821V25.838H5.28811V20.5783H21.0675V25.838H23.6974V20.5783H25.0123C25.361 20.5783 25.6955 20.4397 25.9421 20.1931C26.1887 19.9465 26.3272 19.6121 26.3272 19.2633V14.0035C26.3272 12.0653 25.2608 10.3874 23.6974 9.47485ZM11.8628 8.74374H5.28811V6.11385H11.8628V8.74374ZM21.0675 8.74374H14.4927V6.11385H21.0675V8.74374Z" fill="#4F4F4F"/>
</svg>
