<svg width="35" height="35" viewBox="0 0 35 35" fill="none" xmlns="http://www.w3.org/2000/svg">
<g id="clarity:talk-bubbles-solid" clip-path="url(#clip0_538_5449)">
<path id="Vector" d="M7.73114 18.4616V10.7693H4.84653C4.08148 10.7693 3.34777 11.0732 2.8068 11.6142C2.26583 12.1551 1.96191 12.8889 1.96191 13.6539V30.9616C1.96335 31.1402 2.01448 31.3148 2.10958 31.466C2.20469 31.6171 2.34001 31.7388 2.50038 31.8174C2.65487 31.8876 2.82522 31.9157 2.9941 31.8989C3.16298 31.882 3.32439 31.8207 3.46191 31.7212L8.41384 28.077H21.3369C21.7013 28.0878 22.0641 28.0236 22.4027 27.8885C22.7414 27.7533 23.0486 27.5501 23.3055 27.2914C23.5624 27.0327 23.7635 26.724 23.8962 26.3845C24.029 26.0449 24.0906 25.6817 24.0773 25.3174V24.2308H13.5004C11.9703 24.2308 10.5029 23.623 9.42091 22.5411C8.33897 21.4591 7.73114 19.9917 7.73114 18.4616Z" fill="#4F4F4F"/>
<path id="Vector_2" d="M29.846 4.03833H13.4999C12.7348 4.03833 12.0011 4.34224 11.4601 4.88321C10.9191 5.42418 10.6152 6.1579 10.6152 6.92295V18.4614C10.6152 19.2265 10.9191 19.9602 11.4601 20.5011C12.0011 21.0421 12.7348 21.346 13.4999 21.346H26.5287L31.1249 24.9133C31.2615 25.0143 31.4224 25.0774 31.5914 25.0959C31.7603 25.1145 31.9311 25.088 32.0864 25.0191C32.25 24.9412 32.3883 24.8186 32.4853 24.6655C32.5822 24.5124 32.634 24.335 32.6345 24.1537V6.92295C32.6349 6.17427 32.3442 5.45476 31.8239 4.91647C31.3035 4.37818 30.5943 4.06329 29.846 4.03833Z" fill="#4F4F4F"/>
</g>
<defs>
<clipPath id="clip0_538_5449">
<rect width="34.6154" height="34.6154" fill="white" transform="translate(0.0380859 0.192261)"/>
</clipPath>
</defs>
</svg>
