<svg width="23" height="21" viewBox="0 0 23 21" fill="none" xmlns="http://www.w3.org/2000/svg">
<g clip-path="url(#clip0_537_3533)">
<path d="M22.3611 2.51562C22.7141 2.51562 23 2.23419 23 1.88672V0.628906C23 0.281436 22.7141 0 22.3611 0H0.638889C0.285903 0 0 0.281436 0 0.628906V1.88672C0 2.23419 0.285903 2.51562 0.638889 2.51562H1.27698V17.6094H0.638889C0.285903 17.6094 0 17.8908 0 18.2383V19.4961C0 19.8436 0.285903 20.125 0.638889 20.125H10.2222V16.9805C10.2222 16.6346 10.5097 16.3516 10.8611 16.3516H12.1389C12.4903 16.3516 12.7778 16.6346 12.7778 16.9805V20.125H22.3611C22.7141 20.125 23 19.8436 23 19.4961V18.2383C23 17.8908 22.7141 17.6094 22.3611 17.6094H21.7222V2.51562H22.3611ZM10.2222 4.27656C10.2222 4.025 10.4778 3.77344 10.7333 3.77344H12.2667C12.5222 3.77344 12.7778 4.025 12.7778 4.27656V5.78594C12.7778 6.0375 12.5222 6.28906 12.2667 6.28906H10.7333C10.4778 6.28906 10.2222 6.0375 10.2222 5.78594V4.27656ZM10.2222 8.05C10.2222 7.79844 10.4778 7.54688 10.7333 7.54688H12.2667C12.5222 7.54688 12.7778 7.79844 12.7778 8.05V9.55937C12.7778 9.81094 12.5222 10.0625 12.2667 10.0625H10.7333C10.4778 10.0625 10.2222 9.81094 10.2222 9.55937V8.05ZM5.11111 4.27656C5.11111 4.025 5.36667 3.77344 5.62222 3.77344H7.15556C7.41111 3.77344 7.66667 4.025 7.66667 4.27656V5.78594C7.66667 6.0375 7.41111 6.28906 7.15556 6.28906H5.62222C5.36667 6.28906 5.11111 6.0375 5.11111 5.78594V4.27656ZM7.15556 10.0625H5.62222C5.36667 10.0625 5.11111 9.81094 5.11111 9.55937V8.05C5.11111 7.79844 5.36667 7.54688 5.62222 7.54688H7.15556C7.41111 7.54688 7.66667 7.79844 7.66667 8.05V9.55937C7.66667 9.81094 7.41111 10.0625 7.15556 10.0625ZM7.66667 15.0938C7.66667 13.0097 9.38288 11.3203 11.5 11.3203C13.6171 11.3203 15.3333 13.0097 15.3333 15.0938H7.66667ZM17.8889 9.55937C17.8889 9.81094 17.6333 10.0625 17.3778 10.0625H15.8444C15.5889 10.0625 15.3333 9.81094 15.3333 9.55937V8.05C15.3333 7.79844 15.5889 7.54688 15.8444 7.54688H17.3778C17.6333 7.54688 17.8889 7.79844 17.8889 8.05V9.55937ZM17.8889 5.78594C17.8889 6.0375 17.6333 6.28906 17.3778 6.28906H15.8444C15.5889 6.28906 15.3333 6.0375 15.3333 5.78594V4.27656C15.3333 4.025 15.5889 3.77344 15.8444 3.77344H17.3778C17.6333 3.77344 17.8889 4.025 17.8889 4.27656V5.78594Z" fill="#4F4F4F"/>
</g>
<defs>
<clipPath id="clip0_537_3533">
<rect width="23" height="20.125" fill="white"/>
</clipPath>
</defs>
</svg>
