<svg width="32" height="32" viewBox="0 0 32 32" fill="none" xmlns="http://www.w3.org/2000/svg">
<g clip-path="url(#clip0_1905_4468)">
<path d="M30.9554 16.4263C30.9554 8.09186 24.2027 1.33917 15.8683 1.33917C7.53394 1.33917 0.78125 8.09186 0.78125 16.4263C0.78125 23.9564 6.29838 30.1981 13.511 31.3308V20.7875H9.67837V16.4263H13.511V13.1022C13.511 9.32134 15.7619 7.23287 19.2094 7.23287C20.8605 7.23287 22.587 7.52731 22.587 7.52731V11.2382H20.684C18.8103 11.2382 18.2257 12.4014 18.2257 13.5944V16.4263H22.4099L21.7407 20.7875H18.2257V31.3308C25.4383 30.1981 30.9554 23.9564 30.9554 16.4263Z" fill="#0F0F0F"/>
</g>
<defs>
<clipPath id="clip0_1905_4468">
<rect width="31.1475" height="31.1475" fill="white" transform="translate(0.294922 0.852478)"/>
</clipPath>
</defs>
</svg>
