<svg width="162" height="34" viewBox="0 0 162 34" fill="none" xmlns="http://www.w3.org/2000/svg">
<g clip-path="url(#clip0_553_4246)">
<path d="M64.0457 19.4821C63.4446 19.3483 63.311 18.7462 63.311 17.6758V10.7848C63.311 6.5699 61.641 4.2952 57.7667 4.2952C54.8276 4.2952 53.3581 5.83397 52.6233 7.30583C51.8885 5.29874 50.2854 4.2952 47.6135 4.2952C45.0751 4.2952 43.6724 5.63326 42.8708 7.03822L42.6036 5.03113C42.5368 4.62972 42.3364 4.42901 41.9356 4.62972C39.5977 5.76706 37.4602 6.30229 36.3914 6.43609C36.0574 6.50299 35.9238 6.6368 35.9238 6.90441C35.9238 7.17202 36.1242 7.30583 36.4582 7.37273C37.1262 7.50654 37.193 8.10866 37.193 9.17911V17.6089C37.193 18.6793 37.1262 19.2145 36.4582 19.4152C36.1242 19.4821 35.9238 19.6159 35.9238 19.8836C35.9238 20.1512 36.1242 20.285 36.525 20.285C37.1262 20.2181 38.2618 20.1512 40.0653 20.1512C41.8688 20.1512 43.0044 20.2181 43.6056 20.285C43.9396 20.285 44.2068 20.1512 44.2068 19.8836C44.2068 19.6159 44.0064 19.4821 43.6724 19.4152C43.0712 19.2814 42.9376 18.6793 42.9376 17.6089V10.7179C42.9376 8.84459 43.5388 7.10512 45.2755 7.10512C47.0123 7.10512 47.3463 8.91149 47.3463 10.8517V17.7427C47.3463 18.8131 47.2795 19.3483 46.6115 19.549C46.2775 19.6159 46.0771 19.7497 46.0771 20.0174C46.0771 20.285 46.2775 20.4188 46.6783 20.4188C47.2795 20.3519 48.415 20.285 50.2186 20.285C52.0221 20.285 53.1577 20.3519 53.7589 20.4188C54.0929 20.4188 54.36 20.285 54.36 20.0174C54.36 19.7497 54.1597 19.6159 53.8257 19.549C53.2245 19.4152 53.0909 18.8131 53.0909 17.7427V10.8517V10.7179C53.0909 8.84459 53.6921 7.10512 55.4288 7.10512C57.1656 7.10512 57.4996 8.91149 57.4996 10.8517V17.7427C57.4996 18.8131 57.4328 19.3483 56.7648 19.549C56.4308 19.6159 56.2304 19.7497 56.2304 20.0174C56.2304 20.285 56.4308 20.4188 56.8316 20.4188C57.4328 20.3519 58.5683 20.285 60.3719 20.285C62.1754 20.285 63.311 20.3519 63.9121 20.4188C64.2461 20.4188 64.5133 20.285 64.5133 20.0174C64.5801 19.6828 64.3797 19.549 64.0457 19.4821ZM80.3444 19.4152C79.9436 19.0138 79.9436 17.8765 79.9436 17.0736C79.9436 16.0701 79.8769 10.1826 79.8769 10.1826C79.8769 6.16848 77.5389 4.2952 72.8631 4.2952C65.1813 4.2952 65.5153 9.78123 68.6548 9.98194C73.0635 10.2495 69.8572 5.16494 72.8631 5.16494C74.199 5.16494 74.199 6.7706 74.199 9.58052V9.98194C72.7295 11.2531 64.9809 11.1862 65.1813 16.9398C65.2481 19.2145 66.9849 20.6864 69.924 20.6864C71.6607 20.6864 73.7314 19.8167 74.533 17.8096C75.4682 20.4857 78.2737 20.285 79.8101 20.285H80.2776C80.6784 20.285 80.8788 20.1512 80.8788 19.8167C80.8721 19.6159 80.6116 19.6159 80.3444 19.4152ZM72.5291 17.4081C71.7943 17.4081 71.1263 16.9398 70.9927 16.0032C70.6587 13.7285 73.2639 12.2566 74.199 11.6545V15.468C74.199 16.806 73.3307 17.4081 72.5291 17.4081ZM89.3621 19.4821C88.761 19.3483 88.6274 18.7462 88.6274 17.6758V0.481743C88.6274 0.0803258 88.3602 -0.120383 87.9594 0.0803258C85.6883 1.21767 83.1499 1.7529 82.0812 1.8867C81.7472 1.9536 81.6136 2.08741 81.6136 2.35502C81.6136 2.62263 81.814 2.75644 82.148 2.82334C82.7492 2.95715 82.8828 3.55927 82.8828 4.62972V17.6089C82.8828 18.6793 82.816 19.2145 82.148 19.4152C81.814 19.4821 81.6136 19.6159 81.6136 19.8836C81.6136 20.1512 81.814 20.285 82.2148 20.285C82.816 20.2181 83.9515 20.1512 85.7551 20.1512C87.5586 20.1512 88.6942 20.2181 89.2953 20.285C89.6293 20.285 89.8965 20.1512 89.8965 19.8836C89.8297 19.6828 89.6961 19.549 89.3621 19.4821ZM98.3799 19.4821C97.7787 19.3483 97.6451 18.7462 97.6451 17.6758V0.481743C97.6451 0.0803258 97.3779 -0.120383 96.9771 0.0803258C94.706 1.21767 92.1677 1.7529 91.0989 1.8867C90.7649 1.9536 90.6313 2.08741 90.6313 2.35502C90.6313 2.62263 90.8317 2.75644 91.1657 2.82334C91.7669 2.95715 91.9005 3.55927 91.9005 4.62972V17.6089C91.9005 18.6793 91.8337 19.2145 91.1657 19.4152C90.8317 19.4821 90.6313 19.6159 90.6313 19.8836C90.6313 20.1512 90.8317 20.285 91.2325 20.285C91.8337 20.2181 92.9692 20.1512 94.7728 20.1512C96.5763 20.1512 97.7119 20.2181 98.3131 20.285C98.6471 20.285 98.9142 20.1512 98.9142 19.8836C98.9076 19.6828 98.7139 19.549 98.3799 19.4821ZM107.732 4.2952C102.655 4.2952 99.5822 7.97485 99.5154 12.5242C99.5154 17.0736 102.588 20.7533 107.732 20.7533C112.808 20.7533 115.948 17.0736 115.948 12.5242C115.941 7.97485 112.808 4.2952 107.732 4.2952ZM106.195 5.43255C107.999 5.09803 109.268 8.24247 110.069 11.989C110.804 15.7356 111.071 19.0807 109.335 19.549C107.531 19.8836 106.262 16.7391 105.46 12.9926C104.726 9.31291 104.458 5.90087 106.195 5.43255ZM127.036 4.2952C125.166 4.2952 124.097 5.56635 123.563 7.03822L123.295 5.03113C123.229 4.62972 123.028 4.42901 122.628 4.62972C120.29 5.76706 118.152 6.30229 117.083 6.43609C116.749 6.50299 116.616 6.6368 116.616 6.90441C116.616 7.17202 116.816 7.30583 117.15 7.37273C117.818 7.50654 117.885 8.10866 117.885 9.17911V17.6089C117.885 18.6793 117.818 19.2145 117.15 19.4152C116.816 19.4821 116.616 19.6159 116.616 19.8836C116.616 20.1512 116.816 20.285 117.217 20.285C117.885 20.2181 119.087 20.1512 120.958 20.1512C122.828 20.1512 124.164 20.2181 124.832 20.285C125.233 20.285 125.433 20.1512 125.433 19.8836C125.433 19.6159 125.233 19.4821 124.899 19.4152C124.03 19.2814 123.696 18.8131 123.696 17.6089V9.78123C123.696 8.71079 123.83 7.03822 124.631 7.03822C126.368 7.03822 125.032 9.84813 127.637 9.91504C131.305 10.1826 131.712 4.2952 127.036 4.2952ZM138.793 5.16494C142.066 4.96423 138.993 10.8517 143.402 10.5841C146.274 10.3834 146.207 4.09449 138.793 4.2952C133.516 4.42901 130.443 8.64388 130.777 12.7919C131.111 17.3412 134.451 20.6864 138.993 20.6864C142.533 20.6864 144.404 18.6793 145.005 17.8096C145.205 17.542 145.205 17.3412 145.072 17.1405C144.938 17.0067 144.671 17.0067 144.404 17.0736C140.93 18.0103 137.857 16.4046 136.922 13.1933C135.787 9.71433 136.648 5.29874 138.793 5.16494ZM161.237 19.4152C160.836 19.0138 160.836 17.8765 160.836 17.0736C160.836 16.0701 160.769 10.1826 160.769 10.1826C160.769 6.16848 158.431 4.2952 153.755 4.2952C146.074 4.2952 146.408 9.78123 149.547 9.98194C153.956 10.2495 150.749 5.16494 153.755 5.16494C155.091 5.16494 155.091 6.7706 155.091 9.58052V9.98194C153.622 11.2531 145.873 11.1862 146.074 16.9398C146.14 19.2145 147.877 20.6864 150.816 20.6864C152.553 20.6864 154.624 19.8167 155.425 17.8096C156.36 20.4857 159.166 20.285 160.702 20.285H161.17C161.571 20.285 161.771 20.1512 161.771 19.8167C161.771 19.6159 161.437 19.6159 161.237 19.4152ZM153.421 17.4081C152.687 17.4081 152.019 16.9398 151.885 16.0032C151.551 13.7285 154.156 12.2566 155.091 11.6545V15.468C155.091 16.806 154.223 17.4081 153.421 17.4081Z" fill="#C92D25"/>
<path d="M37.46 31.7253V26.1054H38.5955V27.8449L38.4619 27.4435C38.5287 27.1759 38.6623 26.9083 38.8627 26.7076C39.0631 26.5069 39.2635 26.3062 39.5307 26.1723C39.7979 26.0385 40.0651 25.9716 40.3323 25.9716C40.4659 25.9716 40.5995 25.9716 40.6663 25.9716C40.7999 25.9716 40.8667 26.0385 40.9334 26.0385L40.6663 27.2428C40.5995 27.1759 40.4659 27.1759 40.3991 27.1759C40.3323 27.1759 40.1987 27.109 40.1319 27.109C39.9315 27.109 39.7311 27.1759 39.5975 27.2428C39.3971 27.3097 39.2635 27.4435 39.1299 27.5773C38.9963 27.7111 38.9295 27.8449 38.7959 28.0456C38.7291 28.2463 38.6623 28.3801 38.6623 28.5808V31.6584H37.46V31.7253ZM51.0199 31.8591C50.4188 31.8591 49.9512 31.7253 49.4836 31.5246C49.016 31.257 48.682 30.9224 48.4148 30.521C48.1476 30.1196 48.014 29.5844 48.014 29.0492C48.014 28.5808 48.0808 28.1794 48.2144 27.8449C48.348 27.5104 48.5484 27.1759 48.8156 26.9083C49.0828 26.6407 49.35 26.44 49.7508 26.3062C50.0848 26.1723 50.4856 26.1054 50.8863 26.1054C51.2203 26.1054 51.6211 26.1723 51.8883 26.3062C52.2223 26.44 52.4895 26.6407 52.6899 26.8414C52.9571 27.109 53.0907 27.3766 53.2243 27.7111C53.3579 28.0456 53.4247 28.3801 53.4247 28.7816V29.2499H48.8824L48.6152 28.3801H52.4895L52.3559 28.5808V28.3132C52.3559 28.0456 52.2891 27.8449 52.0887 27.7111C51.8883 27.5773 51.7547 27.3766 51.5543 27.2428C51.3539 27.109 51.1535 27.109 50.8863 27.109C50.4856 27.109 50.1516 27.1759 49.8844 27.3097C49.6172 27.4435 49.4168 27.6442 49.2832 27.9787C49.1496 28.2463 49.0828 28.5808 49.0828 29.0492C49.0828 29.4506 49.1496 29.7851 49.35 30.0527C49.4836 30.3203 49.7508 30.5879 50.018 30.7217C50.2852 30.8555 50.6859 30.9893 51.0867 30.9893C51.3539 30.9893 51.6211 30.9224 51.8883 30.8555C52.1555 30.7886 52.4227 30.5879 52.6899 30.3203L53.2243 31.1232C53.0239 31.3239 52.8235 31.4577 52.6231 31.5915C52.3559 31.7253 52.0887 31.7922 51.8215 31.926C51.5543 31.7922 51.2871 31.8591 51.0199 31.8591ZM61.7744 31.7253V26.1054H62.8432V31.7253H61.7744ZM62.3088 24.8343C62.0416 24.8343 61.908 24.7674 61.7744 24.6336C61.6408 24.4998 61.574 24.366 61.574 24.0984C61.574 23.8977 61.6408 23.6969 61.7744 23.5631C61.908 23.4293 62.1084 23.3624 62.3088 23.3624C62.576 23.3624 62.7096 23.4293 62.8432 23.5631C62.9768 23.6969 63.0436 23.8307 63.0436 24.0984C63.0436 24.2991 62.9768 24.4998 62.8432 24.6336C62.7096 24.7674 62.5092 24.8343 62.3088 24.8343ZM73.3304 31.8591C72.8629 31.8591 72.4621 31.7922 72.0613 31.5915C71.6605 31.4577 71.3933 31.1901 71.1261 30.8555L71.8609 30.1865C72.0613 30.4541 72.3285 30.5879 72.5289 30.7217C72.7961 30.8555 73.0632 30.8555 73.3972 30.8555C73.5308 30.8555 73.6644 30.8555 73.7312 30.7886C73.8648 30.7217 73.9316 30.7217 73.9984 30.6548C74.0652 30.5879 74.132 30.521 74.1988 30.4541C74.2656 30.3872 74.2656 30.2534 74.2656 30.1865C74.2656 29.9858 74.1988 29.852 74.0652 29.7182C73.9984 29.6513 73.8648 29.5844 73.7312 29.5844C73.5976 29.5175 73.3972 29.4506 73.13 29.3837C72.7293 29.2499 72.3953 29.183 72.1281 29.0492C71.8609 28.9154 71.6605 28.7816 71.5269 28.5808C71.3933 28.447 71.3265 28.3132 71.2597 28.1125C71.1929 27.9787 71.1929 27.778 71.1929 27.5773C71.1929 27.3097 71.2597 27.109 71.3265 26.9083C71.4601 26.7076 71.5937 26.5069 71.7273 26.3731C71.9277 26.2392 72.1281 26.1054 72.3953 26.0385C72.6625 25.9716 72.9296 25.9047 73.1968 25.9047C73.464 25.9047 73.7312 25.9716 73.9984 26.0385C74.2656 26.1054 74.5328 26.2392 74.7332 26.3731C74.9336 26.5069 75.134 26.6407 75.2676 26.8414L74.6664 27.5104C74.5328 27.3766 74.3992 27.2428 74.1988 27.1759C74.0652 27.0421 73.8648 26.9752 73.7312 26.9083C73.5976 26.8414 73.3972 26.8414 73.2636 26.8414C73.13 26.8414 72.9964 26.8414 72.8629 26.9083C72.7293 26.9083 72.6625 26.9752 72.5289 27.0421C72.4621 27.109 72.3953 27.1759 72.3285 27.2428C72.2617 27.3097 72.2617 27.4435 72.2617 27.5104C72.2617 27.5773 72.2617 27.7111 72.3285 27.778C72.3953 27.8449 72.3953 27.9118 72.5289 27.9787C72.5957 28.0456 72.7293 28.1125 72.8629 28.1794C72.9964 28.2463 73.1968 28.3132 73.464 28.3801C73.798 28.447 74.132 28.5808 74.3324 28.7147C74.5996 28.8485 74.7332 28.9154 74.8668 29.1161C75.0004 29.2499 75.134 29.3837 75.134 29.5844C75.2008 29.7851 75.2008 29.9858 75.2008 30.1865C75.2008 30.521 75.134 30.7886 74.9336 31.0562C74.7332 31.3239 74.5328 31.5246 74.1988 31.6584C74.0652 31.7922 73.6644 31.8591 73.3304 31.8591ZM86.0888 31.8591C85.4877 31.8591 85.0201 31.7253 84.5525 31.5246C84.0849 31.257 83.7509 30.9224 83.4837 30.521C83.2165 30.1196 83.0829 29.5844 83.0829 29.0492C83.0829 28.5808 83.1497 28.1794 83.2833 27.8449C83.4169 27.5104 83.6173 27.1759 83.8845 26.9083C84.1517 26.6407 84.4189 26.44 84.8197 26.3062C85.1537 26.1723 85.5544 26.1054 85.9552 26.1054C86.2892 26.1054 86.69 26.1723 86.9572 26.3062C87.2912 26.44 87.5584 26.6407 87.7588 26.8414C88.026 27.109 88.1596 27.3766 88.2932 27.7111C88.4268 28.0456 88.4936 28.3801 88.4936 28.7816V29.2499H83.8845L83.6173 28.3801H87.4916L87.358 28.5808V28.3132C87.358 28.0456 87.2912 27.8449 87.0908 27.7111C86.9572 27.5104 86.7568 27.3766 86.5564 27.2428C86.356 27.109 86.1556 27.109 85.8884 27.109C85.4877 27.109 85.1537 27.1759 84.8865 27.3097C84.6193 27.4435 84.4189 27.6442 84.2853 27.9787C84.1517 28.2463 84.0849 28.5808 84.0849 29.0492C84.0849 29.4506 84.1517 29.7851 84.3521 30.0527C84.4857 30.3203 84.7529 30.5879 85.0201 30.7217C85.2873 30.8555 85.688 30.9893 86.0888 30.9893C86.356 30.9893 86.6232 30.9224 86.8904 30.8555C87.1576 30.7886 87.4248 30.5879 87.692 30.3203L88.2264 31.1232C88.026 31.3239 87.8256 31.4577 87.6252 31.5915C87.358 31.7253 87.0908 31.7922 86.8236 31.926C86.6232 31.7922 86.356 31.8591 86.0888 31.8591ZM97.2374 31.7253V25.5033C97.2374 25.1688 97.3042 24.9012 97.4378 24.6336C97.5714 24.366 97.7718 24.1653 98.039 24.0315C98.3062 23.8976 98.5734 23.8307 98.9074 23.8307C99.1078 23.8307 99.3749 23.8977 99.5753 23.9646C99.7757 24.0315 99.9093 24.1653 100.043 24.2991L99.6421 25.1688C99.5753 25.1019 99.4417 25.035 99.3081 24.9681C99.1745 24.9012 99.1077 24.9012 98.9742 24.9012C98.8406 24.9012 98.707 24.9012 98.5734 24.9681C98.5066 25.035 98.373 25.1019 98.373 25.1688C98.3062 25.2357 98.3062 25.3695 98.3062 25.5033V31.7253H97.7718C97.705 31.7253 97.5714 31.7253 97.5046 31.7253C97.3777 31.7253 97.3109 31.7253 97.2374 31.7253ZM96.3089 27.2428V26.2392H99.6488V27.2428H96.3089ZM109.668 31.8591C109.268 31.8591 108.934 31.7922 108.6 31.5915C108.333 31.3908 108.065 31.1232 107.932 30.7886C107.798 30.4541 107.665 30.0527 107.665 29.5844V26.1054H108.733V29.2499C108.733 29.5844 108.8 29.852 108.867 30.1196C109.001 30.3872 109.134 30.521 109.335 30.6548C109.535 30.7886 109.802 30.8555 110.069 30.8555C110.27 30.8555 110.47 30.8555 110.604 30.7886C110.804 30.7217 110.938 30.5879 111.071 30.521C111.205 30.3872 111.272 30.2534 111.338 30.0527C111.405 29.852 111.472 29.7182 111.472 29.5175V26.1054H112.541V31.7253H111.472V30.521L111.672 30.3872C111.606 30.6548 111.472 30.9224 111.205 31.1232C111.004 31.3239 110.737 31.5246 110.47 31.6584C110.263 31.7922 110.002 31.8591 109.668 31.8591ZM111.205 24.8343C110.938 24.8343 110.804 24.7674 110.67 24.6336C110.537 24.4998 110.47 24.366 110.47 24.0984C110.47 23.8977 110.537 23.6969 110.67 23.5631C110.804 23.4293 111.004 23.3624 111.205 23.3624C111.472 23.3624 111.606 23.4293 111.739 23.5631C111.873 23.6969 111.94 23.8307 111.94 24.0984C111.94 24.2991 111.873 24.4998 111.739 24.6336C111.672 24.7674 111.472 24.8343 111.205 24.8343ZM109.067 24.8343C108.8 24.8343 108.667 24.7674 108.533 24.6336C108.399 24.4998 108.333 24.366 108.333 24.0984C108.333 23.8977 108.399 23.6969 108.533 23.5631C108.667 23.4293 108.867 23.3624 109.067 23.3624C109.335 23.3624 109.468 23.4293 109.602 23.5631C109.735 23.6969 109.802 23.8307 109.802 24.0984C109.802 24.2991 109.735 24.4998 109.602 24.6336C109.535 24.7674 109.335 24.8343 109.067 24.8343ZM121.091 31.7253V23.8307H122.16V27.3097L121.959 27.4435C122.026 27.1759 122.16 26.9752 122.36 26.7745C122.56 26.5738 122.828 26.3731 123.095 26.2392C123.362 26.1054 123.696 26.0385 123.963 26.0385C124.364 26.0385 124.765 26.1054 125.032 26.3062C125.299 26.44 125.5 26.7076 125.7 27.0421C125.834 27.3766 125.9 27.8449 125.9 28.3132V31.7253H124.832V28.3801C124.832 28.0456 124.765 27.778 124.698 27.5773C124.631 27.3766 124.498 27.2428 124.297 27.109C124.097 27.0421 123.896 26.9752 123.629 26.9752C123.429 26.9752 123.228 27.0421 123.028 27.109C122.828 27.1759 122.694 27.2428 122.56 27.3766C122.427 27.5104 122.36 27.6442 122.227 27.778C122.16 27.9118 122.093 28.1125 122.093 28.3132V31.7253H121.559C121.492 31.7253 121.358 31.7253 121.291 31.7253C121.225 31.7253 121.158 31.7253 121.091 31.7253ZM134.31 31.7253V26.1054H135.446V27.8449L135.312 27.4435C135.379 27.1759 135.513 26.9083 135.713 26.7076C135.913 26.5069 136.114 26.3062 136.381 26.1723C136.648 26.0385 136.915 25.9716 137.183 25.9716C137.316 25.9716 137.45 25.9716 137.517 25.9716C137.65 25.9716 137.717 26.0385 137.784 26.0385L137.517 27.2428C137.45 27.1759 137.316 27.1759 137.249 27.1759C137.183 27.1759 137.049 27.109 136.982 27.109C136.782 27.109 136.581 27.1759 136.448 27.2428C136.247 27.3097 136.114 27.4435 135.98 27.5773C135.847 27.7111 135.78 27.8449 135.646 28.0456C135.579 28.2463 135.513 28.3801 135.513 28.5808V31.6584H134.31V31.7253ZM147.877 31.8591C147.276 31.8591 146.808 31.7253 146.341 31.5246C145.873 31.257 145.539 30.9224 145.272 30.521C145.005 30.1196 144.871 29.5844 144.871 29.0492C144.871 28.5808 144.938 28.1794 145.071 27.8449C145.205 27.5104 145.405 27.1759 145.673 26.9083C145.94 26.6407 146.207 26.44 146.608 26.3062C146.942 26.1723 147.343 26.1054 147.743 26.1054C148.077 26.1054 148.478 26.1723 148.745 26.3062C149.079 26.44 149.346 26.6407 149.547 26.8414C149.814 27.109 149.948 27.3766 150.081 27.7111C150.215 28.0456 150.282 28.3801 150.282 28.7816V29.2499H145.739L145.472 28.3801H149.346L149.213 28.5808V28.3132C149.213 28.0456 149.079 27.8449 148.946 27.7111C148.812 27.5104 148.612 27.3766 148.411 27.2428C148.211 27.109 148.01 27.109 147.743 27.109C147.343 27.109 147.009 27.1759 146.741 27.3097C146.474 27.4435 146.274 27.6442 146.14 27.9787C146.007 28.2463 145.94 28.5808 145.94 29.0492C145.94 29.4506 146.007 29.7851 146.207 30.0527C146.341 30.3203 146.608 30.5879 146.875 30.7217C147.142 30.8555 147.543 30.9893 147.944 30.9893C148.211 30.9893 148.478 30.9224 148.745 30.8555C149.012 30.7886 149.28 30.5879 149.547 30.3203L150.081 31.1232C149.881 31.3239 149.68 31.4577 149.48 31.5915C149.213 31.7253 148.946 31.7922 148.678 31.926C148.411 31.7922 148.144 31.8591 147.877 31.8591ZM158.431 31.7253V26.1054H159.567V27.8449L159.433 27.4435C159.5 27.1759 159.633 26.9083 159.834 26.7076C160.034 26.5069 160.235 26.3062 160.502 26.1723C160.769 26.0385 161.036 25.9716 161.303 25.9716C161.437 25.9716 161.57 25.9716 161.637 25.9716C161.771 25.9716 161.838 26.0385 161.904 26.0385L161.637 27.2428C161.57 27.1759 161.437 27.1759 161.37 27.1759C161.303 27.1759 161.17 27.109 161.103 27.109C160.902 27.109 160.702 27.1759 160.569 27.2428C160.368 27.3097 160.235 27.4435 160.101 27.5773C159.967 27.7111 159.901 27.8449 159.767 28.0456C159.7 28.2463 159.633 28.3801 159.633 28.5808V31.6584H158.431V31.7253Z" fill="#C92D25"/>
<path fill-rule="evenodd" clip-rule="evenodd" d="M19.8252 25.1019L22.2299 22.6934C26.839 18.0771 26.839 10.584 22.2299 5.96773C17.6209 1.35144 10.0727 1.35144 5.53046 5.96773C0.921401 10.584 0.921401 18.0771 5.53046 22.6934L15.3497 32.5281L13.8802 34C10.6071 30.7218 7.334 27.4435 4.0609 24.1653C-1.34973 18.7462 -1.34973 9.915 4.0609 4.42897C9.47153 -0.990158 18.3557 -0.990158 23.7663 4.42897C29.1769 9.84809 29.1769 18.6793 23.7663 24.1653C22.4971 25.4364 21.1612 26.7745 19.892 28.0457L10.0727 18.2109C7.93518 16.0701 7.93518 12.5242 10.0727 10.3833C12.2102 8.24243 15.7505 8.24243 17.8881 10.3833C20.0256 12.5242 20.0256 16.0701 17.8881 18.2109L15.4833 20.6194M13.947 19.1476C14.7486 18.3447 15.5501 17.5419 16.3517 16.7391C17.6877 15.401 17.6877 13.2601 16.3517 11.8552C15.0158 10.5171 12.8114 10.5171 11.5423 11.8552C10.2063 13.1932 10.2063 15.3341 11.5423 16.7391C12.277 17.5419 13.0786 18.3447 13.947 19.1476Z" fill="#C92D25"/>
<path fill-rule="evenodd" clip-rule="evenodd" d="M18.2892 20.6863L19.3579 19.6159C22.3639 16.6053 22.3639 11.7883 19.3579 8.84454C16.4188 5.90081 11.5426 5.90081 8.60348 8.84454C5.59758 11.8552 5.59758 16.6722 8.60348 19.6159L18.4228 29.4506L16.9532 30.9225L7.13393 21.0877C3.32645 17.2743 3.32645 11.1192 7.13393 7.30577C10.9414 3.49231 17.0868 3.49231 20.8943 7.30577C24.7018 11.1192 24.7018 17.2743 20.8943 21.0877L19.8255 22.1582L18.2892 20.6863Z" fill="#550076"/>
</g>
<defs>
<clipPath id="clip0_553_4246">
<rect width="161.905" height="34" fill="white"/>
</clipPath>
</defs>
</svg>
