<svg width="35" height="35" viewBox="0 0 35 35" fill="none" xmlns="http://www.w3.org/2000/svg">
<g id="icon-park-solid:people-bottom">
<mask id="mask0_537_5344" style="mask-type:alpha" maskUnits="userSpaceOnUse" x="1" y="3" width="33" height="29">
<g id="svgIDa">
<g id="Group">
<path id="Vector" d="M13.7385 14.6154C14.4014 14.6154 15.0579 14.4849 15.6703 14.2312C16.2828 13.9775 16.8393 13.6056 17.308 13.1369C17.7768 12.6681 18.1486 12.1116 18.4023 11.4992C18.656 10.8867 18.7866 10.2303 18.7866 9.56736C18.7866 8.90444 18.656 8.24801 18.4023 7.63555C18.1486 7.02309 17.7768 6.46659 17.308 5.99783C16.8393 5.52908 16.2828 5.15724 15.6703 4.90355C15.0579 4.64986 14.4014 4.51929 13.7385 4.51929C12.3997 4.51929 11.1157 5.05114 10.169 5.99783C9.22228 6.94453 8.69043 8.22853 8.69043 9.56736C8.69043 10.9062 9.22228 12.1902 10.169 13.1369C11.1157 14.0836 12.3997 14.6154 13.7385 14.6154Z" fill="white" stroke="white" stroke-width="2.88462" stroke-linecap="round" stroke-linejoin="round"/>
<path id="Vector_2" d="M23.1152 11.7307L27.4422 16.0576L31.7691 11.7307" stroke="white" stroke-width="2.88462" stroke-linecap="round" stroke-linejoin="round"/>
<path id="Vector_3" d="M2.92188 29.6153V30.4807H24.5565V29.6153C24.5565 26.3845 24.5565 24.7691 23.9276 23.5345C23.3745 22.449 22.492 21.5665 21.4065 21.0134C20.1719 20.3845 18.5565 20.3845 15.3257 20.3845H12.1526C8.92187 20.3845 7.30649 20.3845 6.07188 21.0134C4.98637 21.5665 4.10383 22.449 3.55072 23.5345C2.92188 24.7691 2.92188 26.3845 2.92188 29.6153Z" fill="white" stroke="white" stroke-width="2.88462" stroke-linecap="round" stroke-linejoin="round"/>
</g>
</g>
</mask>
<g mask="url(#mask0_537_5344)">
<path id="Vector_4" d="M0.0380859 0.192261H34.6535V34.8076H0.0380859V0.192261Z" fill="#4F4F4F"/>
</g>
</g>
</svg>
