<svg width="162" height="34" viewBox="0 0 162 34" fill="none" xmlns="http://www.w3.org/2000/svg">
<g clip-path="url(#clip0_1905_4470)">
<path d="M64.0457 19.4821C63.4446 19.3483 63.311 18.7462 63.311 17.6757V10.7847C63.311 6.56987 61.641 4.29517 57.7667 4.29517C54.8276 4.29517 53.3581 5.83394 52.6233 7.3058C51.8885 5.29871 50.2854 4.29517 47.6135 4.29517C45.0751 4.29517 43.6724 5.63323 42.8708 7.03819L42.6036 5.0311C42.5368 4.62969 42.3364 4.42898 41.9356 4.62969C39.5977 5.76703 37.4602 6.30225 36.3914 6.43606C36.0574 6.50296 35.9238 6.63677 35.9238 6.90438C35.9238 7.17199 36.1242 7.3058 36.4582 7.3727C37.1262 7.50651 37.193 8.10863 37.193 9.17908V17.6088C37.193 18.6793 37.1262 19.2145 36.4582 19.4152C36.1242 19.4821 35.9238 19.6159 35.9238 19.8835C35.9238 20.1511 36.1242 20.2849 36.525 20.2849C37.1262 20.218 38.2618 20.1511 40.0653 20.1511C41.8688 20.1511 43.0044 20.218 43.6056 20.2849C43.9396 20.2849 44.2068 20.1511 44.2068 19.8835C44.2068 19.6159 44.0064 19.4821 43.6724 19.4152C43.0712 19.2814 42.9376 18.6793 42.9376 17.6088V10.7178C42.9376 8.84456 43.5388 7.10509 45.2755 7.10509C47.0123 7.10509 47.3463 8.91146 47.3463 10.8516V17.7426C47.3463 18.8131 47.2795 19.3483 46.6115 19.549C46.2775 19.6159 46.0771 19.7497 46.0771 20.0173C46.0771 20.2849 46.2775 20.4187 46.6783 20.4187C47.2795 20.3518 48.415 20.2849 50.2186 20.2849C52.0221 20.2849 53.1577 20.3518 53.7589 20.4187C54.0929 20.4187 54.36 20.2849 54.36 20.0173C54.36 19.7497 54.1597 19.6159 53.8257 19.549C53.2245 19.4152 53.0909 18.8131 53.0909 17.7426V10.8516V10.7178C53.0909 8.84456 53.6921 7.10509 55.4288 7.10509C57.1656 7.10509 57.4996 8.91146 57.4996 10.8516V17.7426C57.4996 18.8131 57.4328 19.3483 56.7648 19.549C56.4308 19.6159 56.2304 19.7497 56.2304 20.0173C56.2304 20.2849 56.4308 20.4187 56.8316 20.4187C57.4328 20.3518 58.5683 20.2849 60.3719 20.2849C62.1754 20.2849 63.311 20.3518 63.9121 20.4187C64.2461 20.4187 64.5133 20.2849 64.5133 20.0173C64.5801 19.6828 64.3797 19.549 64.0457 19.4821ZM80.3444 19.4152C79.9436 19.0138 79.9436 17.8764 79.9436 17.0736C79.9436 16.0701 79.8769 10.1826 79.8769 10.1826C79.8769 6.16845 77.5389 4.29517 72.8631 4.29517C65.1813 4.29517 65.5153 9.7812 68.6548 9.98191C73.0635 10.2495 69.8572 5.16491 72.8631 5.16491C74.199 5.16491 74.199 6.77057 74.199 9.58049V9.98191C72.7295 11.2531 64.9809 11.1862 65.1813 16.9398C65.2481 19.2145 66.9849 20.6864 69.924 20.6864C71.6607 20.6864 73.7314 19.8166 74.533 17.8095C75.4682 20.4856 78.2737 20.2849 79.8101 20.2849H80.2776C80.6784 20.2849 80.8788 20.1511 80.8788 19.8166C80.8721 19.6159 80.6116 19.6159 80.3444 19.4152ZM72.5291 17.4081C71.7943 17.4081 71.1263 16.9398 70.9927 16.0032C70.6587 13.7285 73.2639 12.2566 74.199 11.6545V15.4679C74.199 16.806 73.3307 17.4081 72.5291 17.4081ZM89.3621 19.4821C88.761 19.3483 88.6274 18.7462 88.6274 17.6757V0.481712C88.6274 0.0802953 88.3602 -0.120413 87.9594 0.0802953C85.6883 1.21764 83.1499 1.75286 82.0812 1.88667C81.7472 1.95357 81.6136 2.08738 81.6136 2.35499C81.6136 2.6226 81.814 2.75641 82.148 2.82331C82.7492 2.95712 82.8828 3.55924 82.8828 4.62969V17.6088C82.8828 18.6793 82.816 19.2145 82.148 19.4152C81.814 19.4821 81.6136 19.6159 81.6136 19.8835C81.6136 20.1511 81.814 20.2849 82.2148 20.2849C82.816 20.218 83.9515 20.1511 85.7551 20.1511C87.5586 20.1511 88.6942 20.218 89.2953 20.2849C89.6293 20.2849 89.8965 20.1511 89.8965 19.8835C89.8297 19.6828 89.6961 19.549 89.3621 19.4821ZM98.3799 19.4821C97.7787 19.3483 97.6451 18.7462 97.6451 17.6757V0.481712C97.6451 0.0802953 97.3779 -0.120413 96.9771 0.0802953C94.706 1.21764 92.1677 1.75286 91.0989 1.88667C90.7649 1.95357 90.6313 2.08738 90.6313 2.35499C90.6313 2.6226 90.8317 2.75641 91.1657 2.82331C91.7669 2.95712 91.9005 3.55924 91.9005 4.62969V17.6088C91.9005 18.6793 91.8337 19.2145 91.1657 19.4152C90.8317 19.4821 90.6313 19.6159 90.6313 19.8835C90.6313 20.1511 90.8317 20.2849 91.2325 20.2849C91.8337 20.218 92.9692 20.1511 94.7728 20.1511C96.5763 20.1511 97.7119 20.218 98.3131 20.2849C98.6471 20.2849 98.9142 20.1511 98.9142 19.8835C98.9076 19.6828 98.7139 19.549 98.3799 19.4821ZM107.732 4.29517C102.655 4.29517 99.5822 7.97482 99.5154 12.5242C99.5154 17.0736 102.588 20.7533 107.732 20.7533C112.808 20.7533 115.948 17.0736 115.948 12.5242C115.941 7.97482 112.808 4.29517 107.732 4.29517ZM106.195 5.43252C107.999 5.098 109.268 8.24244 110.069 11.989C110.804 15.7355 111.071 19.0807 109.335 19.549C107.531 19.8835 106.262 16.7391 105.46 12.9925C104.726 9.31288 104.458 5.90084 106.195 5.43252ZM127.036 4.29517C125.166 4.29517 124.097 5.56632 123.563 7.03819L123.295 5.0311C123.229 4.62969 123.028 4.42898 122.628 4.62969C120.29 5.76703 118.152 6.30225 117.083 6.43606C116.749 6.50296 116.616 6.63677 116.616 6.90438C116.616 7.17199 116.816 7.3058 117.15 7.3727C117.818 7.50651 117.885 8.10863 117.885 9.17908V17.6088C117.885 18.6793 117.818 19.2145 117.15 19.4152C116.816 19.4821 116.616 19.6159 116.616 19.8835C116.616 20.1511 116.816 20.2849 117.217 20.2849C117.885 20.218 119.087 20.1511 120.958 20.1511C122.828 20.1511 124.164 20.218 124.832 20.2849C125.233 20.2849 125.433 20.1511 125.433 19.8835C125.433 19.6159 125.233 19.4821 124.899 19.4152C124.03 19.2814 123.696 18.8131 123.696 17.6088V9.7812C123.696 8.71076 123.83 7.03819 124.631 7.03819C126.368 7.03819 125.032 9.8481 127.637 9.91501C131.305 10.1826 131.712 4.29517 127.036 4.29517ZM138.793 5.16491C142.066 4.9642 138.993 10.8516 143.402 10.584C146.274 10.3833 146.207 4.09446 138.793 4.29517C133.516 4.42898 130.443 8.64385 130.777 12.7918C131.111 17.3412 134.451 20.6864 138.993 20.6864C142.533 20.6864 144.404 18.6793 145.005 17.8095C145.205 17.5419 145.205 17.3412 145.072 17.1405C144.938 17.0067 144.671 17.0067 144.404 17.0736C140.93 18.0102 137.857 16.4046 136.922 13.1932C135.787 9.7143 136.648 5.29871 138.793 5.16491ZM161.237 19.4152C160.836 19.0138 160.836 17.8764 160.836 17.0736C160.836 16.0701 160.769 10.1826 160.769 10.1826C160.769 6.16845 158.431 4.29517 153.755 4.29517C146.074 4.29517 146.408 9.7812 149.547 9.98191C153.956 10.2495 150.749 5.16491 153.755 5.16491C155.091 5.16491 155.091 6.77057 155.091 9.58049V9.98191C153.622 11.2531 145.873 11.1862 146.074 16.9398C146.14 19.2145 147.877 20.6864 150.816 20.6864C152.553 20.6864 154.624 19.8166 155.425 17.8095C156.36 20.4856 159.166 20.2849 160.702 20.2849H161.17C161.571 20.2849 161.771 20.1511 161.771 19.8166C161.771 19.6159 161.437 19.6159 161.237 19.4152ZM153.421 17.4081C152.687 17.4081 152.019 16.9398 151.885 16.0032C151.551 13.7285 154.156 12.2566 155.091 11.6545V15.4679C155.091 16.806 154.223 17.4081 153.421 17.4081Z" fill="#C92D25"/>
<path d="M37.46 31.7253V26.1055H38.5955V27.8449L38.4619 27.4435C38.5287 27.1759 38.6623 26.9083 38.8627 26.7076C39.0631 26.5069 39.2635 26.3062 39.5307 26.1724C39.7979 26.0386 40.0651 25.9717 40.3323 25.9717C40.4659 25.9717 40.5995 25.9717 40.6663 25.9717C40.7999 25.9717 40.8667 26.0386 40.9334 26.0386L40.6663 27.2428C40.5995 27.1759 40.4659 27.1759 40.3991 27.1759C40.3323 27.1759 40.1987 27.109 40.1319 27.109C39.9315 27.109 39.7311 27.1759 39.5975 27.2428C39.3971 27.3097 39.2635 27.4435 39.1299 27.5773C38.9963 27.7111 38.9295 27.8449 38.7959 28.0457C38.7291 28.2464 38.6623 28.3802 38.6623 28.5809V31.6584H37.46V31.7253ZM51.0199 31.8591C50.4188 31.8591 49.9512 31.7253 49.4836 31.5246C49.016 31.257 48.682 30.9225 48.4148 30.5211C48.1476 30.1196 48.014 29.5844 48.014 29.0492C48.014 28.5809 48.0808 28.1795 48.2144 27.8449C48.348 27.5104 48.5484 27.1759 48.8156 26.9083C49.0828 26.6407 49.35 26.44 49.7508 26.3062C50.0848 26.1724 50.4856 26.1055 50.8863 26.1055C51.2203 26.1055 51.6211 26.1724 51.8883 26.3062C52.2223 26.44 52.4895 26.6407 52.6899 26.8414C52.9571 27.109 53.0907 27.3766 53.2243 27.7111C53.3579 28.0457 53.4247 28.3802 53.4247 28.7816V29.2499H48.8824L48.6152 28.3802H52.4895L52.3559 28.5809V28.3133C52.3559 28.0457 52.2891 27.8449 52.0887 27.7111C51.8883 27.5773 51.7547 27.3766 51.5543 27.2428C51.3539 27.109 51.1535 27.109 50.8863 27.109C50.4856 27.109 50.1516 27.1759 49.8844 27.3097C49.6172 27.4435 49.4168 27.6442 49.2832 27.9788C49.1496 28.2464 49.0828 28.5809 49.0828 29.0492C49.0828 29.4506 49.1496 29.7851 49.35 30.0527C49.4836 30.3203 49.7508 30.588 50.018 30.7218C50.2852 30.8556 50.6859 30.9894 51.0867 30.9894C51.3539 30.9894 51.6211 30.9225 51.8883 30.8556C52.1555 30.7887 52.4227 30.588 52.6899 30.3203L53.2243 31.1232C53.0239 31.3239 52.8235 31.4577 52.6231 31.5915C52.3559 31.7253 52.0887 31.7922 51.8215 31.926C51.5543 31.7922 51.2871 31.8591 51.0199 31.8591ZM61.7744 31.7253V26.1055H62.8432V31.7253H61.7744ZM62.3088 24.8343C62.0416 24.8343 61.908 24.7674 61.7744 24.6336C61.6408 24.4998 61.574 24.366 61.574 24.0984C61.574 23.8977 61.6408 23.697 61.7744 23.5632C61.908 23.4294 62.1084 23.3625 62.3088 23.3625C62.576 23.3625 62.7096 23.4294 62.8432 23.5632C62.9768 23.697 63.0436 23.8308 63.0436 24.0984C63.0436 24.2991 62.9768 24.4998 62.8432 24.6336C62.7096 24.7674 62.5092 24.8343 62.3088 24.8343ZM73.3304 31.8591C72.8629 31.8591 72.4621 31.7922 72.0613 31.5915C71.6605 31.4577 71.3933 31.1901 71.1261 30.8556L71.8609 30.1865C72.0613 30.4542 72.3285 30.588 72.5289 30.7218C72.7961 30.8556 73.0632 30.8556 73.3972 30.8556C73.5308 30.8556 73.6644 30.8556 73.7312 30.7887C73.8648 30.7218 73.9316 30.7218 73.9984 30.6549C74.0652 30.588 74.132 30.5211 74.1988 30.4542C74.2656 30.3873 74.2656 30.2534 74.2656 30.1865C74.2656 29.9858 74.1988 29.852 74.0652 29.7182C73.9984 29.6513 73.8648 29.5844 73.7312 29.5844C73.5976 29.5175 73.3972 29.4506 73.13 29.3837C72.7293 29.2499 72.3953 29.183 72.1281 29.0492C71.8609 28.9154 71.6605 28.7816 71.5269 28.5809C71.3933 28.4471 71.3265 28.3133 71.2597 28.1126C71.1929 27.9788 71.1929 27.778 71.1929 27.5773C71.1929 27.3097 71.2597 27.109 71.3265 26.9083C71.4601 26.7076 71.5937 26.5069 71.7273 26.3731C71.9277 26.2393 72.1281 26.1055 72.3953 26.0386C72.6625 25.9717 72.9296 25.9048 73.1968 25.9048C73.464 25.9048 73.7312 25.9717 73.9984 26.0386C74.2656 26.1055 74.5328 26.2393 74.7332 26.3731C74.9336 26.5069 75.134 26.6407 75.2676 26.8414L74.6664 27.5104C74.5328 27.3766 74.3992 27.2428 74.1988 27.1759C74.0652 27.0421 73.8648 26.9752 73.7312 26.9083C73.5976 26.8414 73.3972 26.8414 73.2636 26.8414C73.13 26.8414 72.9964 26.8414 72.8629 26.9083C72.7293 26.9083 72.6625 26.9752 72.5289 27.0421C72.4621 27.109 72.3953 27.1759 72.3285 27.2428C72.2617 27.3097 72.2617 27.4435 72.2617 27.5104C72.2617 27.5773 72.2617 27.7111 72.3285 27.778C72.3953 27.8449 72.3953 27.9118 72.5289 27.9788C72.5957 28.0457 72.7293 28.1126 72.8629 28.1795C72.9964 28.2464 73.1968 28.3133 73.464 28.3802C73.798 28.4471 74.132 28.5809 74.3324 28.7147C74.5996 28.8485 74.7332 28.9154 74.8668 29.1161C75.0004 29.2499 75.134 29.3837 75.134 29.5844C75.2008 29.7851 75.2008 29.9858 75.2008 30.1865C75.2008 30.5211 75.134 30.7887 74.9336 31.0563C74.7332 31.3239 74.5328 31.5246 74.1988 31.6584C74.0652 31.7922 73.6644 31.8591 73.3304 31.8591ZM86.0888 31.8591C85.4877 31.8591 85.0201 31.7253 84.5525 31.5246C84.0849 31.257 83.7509 30.9225 83.4837 30.5211C83.2165 30.1196 83.0829 29.5844 83.0829 29.0492C83.0829 28.5809 83.1497 28.1795 83.2833 27.8449C83.4169 27.5104 83.6173 27.1759 83.8845 26.9083C84.1517 26.6407 84.4189 26.44 84.8197 26.3062C85.1537 26.1724 85.5544 26.1055 85.9552 26.1055C86.2892 26.1055 86.69 26.1724 86.9572 26.3062C87.2912 26.44 87.5584 26.6407 87.7588 26.8414C88.026 27.109 88.1596 27.3766 88.2932 27.7111C88.4268 28.0457 88.4936 28.3802 88.4936 28.7816V29.2499H83.8845L83.6173 28.3802H87.4916L87.358 28.5809V28.3133C87.358 28.0457 87.2912 27.8449 87.0908 27.7111C86.9572 27.5104 86.7568 27.3766 86.5564 27.2428C86.356 27.109 86.1556 27.109 85.8884 27.109C85.4877 27.109 85.1537 27.1759 84.8865 27.3097C84.6193 27.4435 84.4189 27.6442 84.2853 27.9788C84.1517 28.2464 84.0849 28.5809 84.0849 29.0492C84.0849 29.4506 84.1517 29.7851 84.3521 30.0527C84.4857 30.3203 84.7529 30.588 85.0201 30.7218C85.2873 30.8556 85.688 30.9894 86.0888 30.9894C86.356 30.9894 86.6232 30.9225 86.8904 30.8556C87.1576 30.7887 87.4248 30.588 87.692 30.3203L88.2264 31.1232C88.026 31.3239 87.8256 31.4577 87.6252 31.5915C87.358 31.7253 87.0908 31.7922 86.8236 31.926C86.6232 31.7922 86.356 31.8591 86.0888 31.8591ZM97.2374 31.7253V25.5033C97.2374 25.1688 97.3042 24.9012 97.4378 24.6336C97.5714 24.366 97.7718 24.1653 98.039 24.0315C98.3062 23.8977 98.5734 23.8308 98.9074 23.8308C99.1078 23.8308 99.3749 23.8977 99.5753 23.9646C99.7757 24.0315 99.9093 24.1653 100.043 24.2991L99.6421 25.1688C99.5753 25.1019 99.4417 25.035 99.3081 24.9681C99.1745 24.9012 99.1077 24.9012 98.9742 24.9012C98.8406 24.9012 98.707 24.9012 98.5734 24.9681C98.5066 25.035 98.373 25.1019 98.373 25.1688C98.3062 25.2357 98.3062 25.3695 98.3062 25.5033V31.7253H97.7718C97.705 31.7253 97.5714 31.7253 97.5046 31.7253C97.3777 31.7253 97.3109 31.7253 97.2374 31.7253ZM96.3089 27.2428V26.2393H99.6488V27.2428H96.3089ZM109.668 31.8591C109.268 31.8591 108.934 31.7922 108.6 31.5915C108.333 31.3908 108.065 31.1232 107.932 30.7887C107.798 30.4542 107.665 30.0527 107.665 29.5844V26.1055H108.733V29.2499C108.733 29.5844 108.8 29.852 108.867 30.1196C109.001 30.3873 109.134 30.5211 109.335 30.6549C109.535 30.7887 109.802 30.8556 110.069 30.8556C110.27 30.8556 110.47 30.8556 110.604 30.7887C110.804 30.7218 110.938 30.588 111.071 30.5211C111.205 30.3873 111.272 30.2534 111.338 30.0527C111.405 29.852 111.472 29.7182 111.472 29.5175V26.1055H112.541V31.7253H111.472V30.5211L111.672 30.3873C111.606 30.6549 111.472 30.9225 111.205 31.1232C111.004 31.3239 110.737 31.5246 110.47 31.6584C110.263 31.7922 110.002 31.8591 109.668 31.8591ZM111.205 24.8343C110.938 24.8343 110.804 24.7674 110.67 24.6336C110.537 24.4998 110.47 24.366 110.47 24.0984C110.47 23.8977 110.537 23.697 110.67 23.5632C110.804 23.4294 111.004 23.3625 111.205 23.3625C111.472 23.3625 111.606 23.4294 111.739 23.5632C111.873 23.697 111.94 23.8308 111.94 24.0984C111.94 24.2991 111.873 24.4998 111.739 24.6336C111.672 24.7674 111.472 24.8343 111.205 24.8343ZM109.067 24.8343C108.8 24.8343 108.667 24.7674 108.533 24.6336C108.399 24.4998 108.333 24.366 108.333 24.0984C108.333 23.8977 108.399 23.697 108.533 23.5632C108.667 23.4294 108.867 23.3625 109.067 23.3625C109.335 23.3625 109.468 23.4294 109.602 23.5632C109.735 23.697 109.802 23.8308 109.802 24.0984C109.802 24.2991 109.735 24.4998 109.602 24.6336C109.535 24.7674 109.335 24.8343 109.067 24.8343ZM121.091 31.7253V23.8308H122.16V27.3097L121.959 27.4435C122.026 27.1759 122.16 26.9752 122.36 26.7745C122.56 26.5738 122.828 26.3731 123.095 26.2393C123.362 26.1055 123.696 26.0386 123.963 26.0386C124.364 26.0386 124.765 26.1055 125.032 26.3062C125.299 26.44 125.5 26.7076 125.7 27.0421C125.834 27.3766 125.9 27.8449 125.9 28.3133V31.7253H124.832V28.3802C124.832 28.0457 124.765 27.778 124.698 27.5773C124.631 27.3766 124.498 27.2428 124.297 27.109C124.097 27.0421 123.896 26.9752 123.629 26.9752C123.429 26.9752 123.228 27.0421 123.028 27.109C122.828 27.1759 122.694 27.2428 122.56 27.3766C122.427 27.5104 122.36 27.6442 122.227 27.778C122.16 27.9118 122.093 28.1126 122.093 28.3133V31.7253H121.559C121.492 31.7253 121.358 31.7253 121.291 31.7253C121.225 31.7253 121.158 31.7253 121.091 31.7253ZM134.31 31.7253V26.1055H135.446V27.8449L135.312 27.4435C135.379 27.1759 135.513 26.9083 135.713 26.7076C135.913 26.5069 136.114 26.3062 136.381 26.1724C136.648 26.0386 136.915 25.9717 137.183 25.9717C137.316 25.9717 137.45 25.9717 137.517 25.9717C137.65 25.9717 137.717 26.0386 137.784 26.0386L137.517 27.2428C137.45 27.1759 137.316 27.1759 137.249 27.1759C137.183 27.1759 137.049 27.109 136.982 27.109C136.782 27.109 136.581 27.1759 136.448 27.2428C136.247 27.3097 136.114 27.4435 135.98 27.5773C135.847 27.7111 135.78 27.8449 135.646 28.0457C135.579 28.2464 135.513 28.3802 135.513 28.5809V31.6584H134.31V31.7253ZM147.877 31.8591C147.276 31.8591 146.808 31.7253 146.341 31.5246C145.873 31.257 145.539 30.9225 145.272 30.5211C145.005 30.1196 144.871 29.5844 144.871 29.0492C144.871 28.5809 144.938 28.1795 145.071 27.8449C145.205 27.5104 145.405 27.1759 145.673 26.9083C145.94 26.6407 146.207 26.44 146.608 26.3062C146.942 26.1724 147.343 26.1055 147.743 26.1055C148.077 26.1055 148.478 26.1724 148.745 26.3062C149.079 26.44 149.346 26.6407 149.547 26.8414C149.814 27.109 149.948 27.3766 150.081 27.7111C150.215 28.0457 150.282 28.3802 150.282 28.7816V29.2499H145.739L145.472 28.3802H149.346L149.213 28.5809V28.3133C149.213 28.0457 149.079 27.8449 148.946 27.7111C148.812 27.5104 148.612 27.3766 148.411 27.2428C148.211 27.109 148.01 27.109 147.743 27.109C147.343 27.109 147.009 27.1759 146.741 27.3097C146.474 27.4435 146.274 27.6442 146.14 27.9788C146.007 28.2464 145.94 28.5809 145.94 29.0492C145.94 29.4506 146.007 29.7851 146.207 30.0527C146.341 30.3203 146.608 30.588 146.875 30.7218C147.142 30.8556 147.543 30.9894 147.944 30.9894C148.211 30.9894 148.478 30.9225 148.745 30.8556C149.012 30.7887 149.28 30.588 149.547 30.3203L150.081 31.1232C149.881 31.3239 149.68 31.4577 149.48 31.5915C149.213 31.7253 148.946 31.7922 148.678 31.926C148.411 31.7922 148.144 31.8591 147.877 31.8591ZM158.431 31.7253V26.1055H159.567V27.8449L159.433 27.4435C159.5 27.1759 159.633 26.9083 159.834 26.7076C160.034 26.5069 160.235 26.3062 160.502 26.1724C160.769 26.0386 161.036 25.9717 161.303 25.9717C161.437 25.9717 161.57 25.9717 161.637 25.9717C161.771 25.9717 161.838 26.0386 161.904 26.0386L161.637 27.2428C161.57 27.1759 161.437 27.1759 161.37 27.1759C161.303 27.1759 161.17 27.109 161.103 27.109C160.902 27.109 160.702 27.1759 160.569 27.2428C160.368 27.3097 160.235 27.4435 160.101 27.5773C159.967 27.7111 159.901 27.8449 159.767 28.0457C159.7 28.2464 159.633 28.3802 159.633 28.5809V31.6584H158.431V31.7253Z" fill="#C92D25"/>
<path fill-rule="evenodd" clip-rule="evenodd" d="M19.8252 25.1019L22.2299 22.6934C26.839 18.0771 26.839 10.584 22.2299 5.96773C17.6209 1.35144 10.0727 1.35144 5.53046 5.96773C0.921401 10.584 0.921401 18.0771 5.53046 22.6934L15.3497 32.5281L13.8802 34C10.6071 30.7218 7.334 27.4435 4.0609 24.1653C-1.34973 18.7462 -1.34973 9.915 4.0609 4.42897C9.47153 -0.990158 18.3557 -0.990158 23.7663 4.42897C29.1769 9.84809 29.1769 18.6793 23.7663 24.1653C22.4971 25.4364 21.1612 26.7745 19.892 28.0457L10.0727 18.2109C7.93518 16.0701 7.93518 12.5242 10.0727 10.3833C12.2102 8.24243 15.7505 8.24243 17.8881 10.3833C20.0256 12.5242 20.0256 16.0701 17.8881 18.2109L15.4833 20.6194M13.947 19.1476C14.7486 18.3447 15.5501 17.5419 16.3517 16.7391C17.6877 15.401 17.6877 13.2601 16.3517 11.8552C15.0158 10.5171 12.8114 10.5171 11.5423 11.8552C10.2063 13.1932 10.2063 15.3341 11.5423 16.7391C12.277 17.5419 13.0786 18.3447 13.947 19.1476Z" fill="#C92D25"/>
<path fill-rule="evenodd" clip-rule="evenodd" d="M18.2892 20.6863L19.3579 19.6159C22.3639 16.6053 22.3639 11.7883 19.3579 8.84454C16.4188 5.90081 11.5426 5.90081 8.60348 8.84454C5.59758 11.8552 5.59758 16.6722 8.60348 19.6159L18.4228 29.4506L16.9532 30.9225L7.13393 21.0877C3.32645 17.2743 3.32645 11.1192 7.13393 7.30577C10.9414 3.49231 17.0868 3.49231 20.8943 7.30577C24.7018 11.1192 24.7018 17.2743 20.8943 21.0877L19.8255 22.1582L18.2892 20.6863Z" fill="#380F48"/>
</g>
<defs>
<clipPath id="clip0_1905_4470">
<rect width="161.905" height="34" fill="white"/>
</clipPath>
</defs>
</svg>
