<svg width="35" height="35" viewBox="0 0 35 35" fill="none" xmlns="http://www.w3.org/2000/svg">
<g id="uis:calender">
<path id="Vector" d="M2.92383 27.596C2.92383 30.0479 4.79883 31.9229 7.25075 31.9229H27.4431C29.895 31.9229 31.77 30.0479 31.77 27.596V16.0576H2.92383V27.596ZM27.4431 5.9614H24.5584V4.51909C24.5584 3.65371 23.9815 3.07678 23.1161 3.07678C22.2508 3.07678 21.6738 3.65371 21.6738 4.51909V5.9614H13.02V4.51909C13.02 3.65371 12.4431 3.07678 11.5777 3.07678C10.7123 3.07678 10.1354 3.65371 10.1354 4.51909V5.9614H7.25075C4.79883 5.9614 2.92383 7.8364 2.92383 10.2883V13.1729H31.77V10.2883C31.77 7.8364 29.895 5.9614 27.4431 5.9614Z" fill="#4F4F4F"/>
</g>
</svg>
