<svg width="32" height="32" viewBox="0 0 32 32" fill="none" xmlns="http://www.w3.org/2000/svg">
<path d="M25.1184 6.75955C22.5694 4.20448 19.1748 2.79919 15.5673 2.79919C8.12104 2.79919 2.06188 8.85836 2.06188 16.3046C2.06188 18.6832 2.68239 21.0071 3.86259 23.0573L1.94629 30.0533L9.10657 28.1735C11.0776 29.2503 13.2981 29.816 15.5612 29.816H15.5673C23.0074 29.816 29.2004 23.7569 29.2004 16.3107C29.2004 12.7031 27.6673 9.31463 25.1184 6.75955ZM15.5673 27.5408C13.5475 27.5408 11.5704 26.9994 9.84876 25.9773L9.44116 25.734L5.19488 26.8473L6.32641 22.7044L6.05874 22.2786C4.93329 20.49 4.34319 18.4277 4.34319 16.3046C4.34319 10.1176 9.38033 5.08051 15.5733 5.08051C18.5725 5.08051 21.3892 6.24854 23.5062 8.37168C25.6233 10.4948 26.9252 13.3115 26.9191 16.3107C26.9191 22.5037 21.7542 27.5408 15.5673 27.5408ZM21.7238 19.1334C21.3892 18.9631 19.7284 18.1479 19.4181 18.0384C19.1079 17.9228 18.8828 17.868 18.6577 18.2087C18.4326 18.5494 17.7877 19.3037 17.587 19.5349C17.3923 19.76 17.1915 19.7904 16.857 19.6201C14.8737 18.6285 13.5719 17.8498 12.2639 15.605C11.9172 15.0088 12.6107 15.0514 13.2555 13.7617C13.365 13.5366 13.3103 13.3419 13.2251 13.1716C13.1399 13.0012 12.4647 11.3404 12.1848 10.6652C11.9111 10.0081 11.6312 10.0994 11.4244 10.0872C11.2297 10.0751 11.0046 10.0751 10.7795 10.0751C10.5544 10.0751 10.1894 10.1602 9.87918 10.4948C9.56892 10.8355 8.69898 11.6507 8.69898 13.3115C8.69898 14.9723 9.9096 16.5783 10.0738 16.8034C10.2442 17.0285 12.4525 20.4353 15.841 21.9014C17.9824 22.8261 18.8219 22.9052 19.8926 22.747C20.5436 22.6497 21.888 21.9318 22.1679 21.141C22.4477 20.3501 22.4477 19.6748 22.3625 19.5349C22.2834 19.3828 22.0584 19.2977 21.7238 19.1334Z" fill="#0F0F0F"/>
</svg>
