<svg width="31" height="31" viewBox="0 0 31 31" fill="none" xmlns="http://www.w3.org/2000/svg">
<g clip-path="url(#clip0_558_4759)">
<path d="M7.0127 19.1098L8.91841 21.5362C13.1353 16.1499 19.9878 16.1499 24.2182 21.5362L26.1239 19.1098C20.8528 12.364 12.2973 12.364 7.0127 19.1098ZM10.8376 23.9799L12.7433 26.4063C13.7588 25.1171 15.1343 24.3932 16.5683 24.3932C18.0023 24.3932 19.3778 25.1171 20.3932 26.4063L22.2989 23.9799C20.7784 22.0463 18.7173 20.9602 16.5683 20.9602C14.4193 20.9602 12.3582 22.0463 10.8376 23.9799Z" fill="#4F4F4F"/>
<path d="M0.642578 12.3826L3.65996 15.8155C10.3367 8.19502 21.1864 8.19502 27.8846 15.8155L30.9019 12.3826C22.556 2.83876 9.00991 2.83876 0.642578 12.3826Z" fill="#4F4F4F"/>
</g>
<defs>
<clipPath id="clip0_558_4759">
<rect width="30.2594" height="30.2594" fill="white" transform="translate(0.642578 0.685913)"/>
</clipPath>
</defs>
</svg>
