<svg width="37" height="37" viewBox="0 0 37 37" fill="none" xmlns="http://www.w3.org/2000/svg">
<rect width="37" height="37" fill="#F5F5F5"/>
<g id="homepage/aktivitaeten/desktop" clip-path="url(#clip0_180_1667)">
<rect width="1512" height="4764" transform="translate(-141 -1172)" fill="white"/>
<g id="Frame 25">
<g id="Frame 12">
<rect x="-15.2435" y="-10.7248" width="523.487" height="59.0058" fill="white"/>
<g id="material-symbols:pool-sharp">
<path id="Vector" d="M3.66895 32.3948V29.3689C4.62716 29.3689 5.34582 29.1167 5.82493 28.6124C6.30403 28.1081 7.24964 27.8559 8.66174 27.8559C10.0738 27.8559 11.0447 28.1081 11.5742 28.6124C12.1037 29.1167 12.8224 29.3689 13.7302 29.3689C14.638 29.3689 15.3566 29.1167 15.8862 28.6124C16.4157 28.1081 17.3865 27.8559 18.7986 27.8559C20.2107 27.8559 21.1816 28.1081 21.7111 28.6124C22.2406 29.1167 22.9593 29.3689 23.8671 29.3689C24.7749 29.3689 25.4935 29.1167 26.0231 28.6124C26.5526 28.1081 27.5234 27.8559 28.9355 27.8559C30.3476 27.8559 31.2932 28.1081 31.7723 28.6124C32.2514 29.1167 32.9701 29.3689 33.9283 29.3689V32.3948C32.4406 32.3948 31.4632 32.1426 30.9962 31.6383C30.5302 31.134 29.8433 30.8818 28.9355 30.8818C28.0277 30.8818 27.3091 31.134 26.7795 31.6383C26.25 32.1426 25.2792 32.3948 23.8671 32.3948C22.455 32.3948 21.4841 32.1426 20.9546 31.6383C20.4251 31.134 19.7064 30.8818 18.7986 30.8818C17.8908 30.8818 17.1722 31.134 16.6426 31.6383C16.1131 32.1426 15.1423 32.3948 13.7302 32.3948C12.3181 32.3948 11.3473 32.1426 10.8177 31.6383C10.2882 31.134 9.56952 30.8818 8.66174 30.8818C7.75396 30.8818 7.06707 31.134 6.60108 31.6383C6.13407 32.1426 5.1567 32.3948 3.66895 32.3948ZM3.66895 25.5865V22.5605C4.62716 22.5605 5.34582 22.3084 5.82493 21.804C6.30403 21.2997 7.24964 21.0475 8.66174 21.0475C10.0738 21.0475 11.0512 21.2997 11.5939 21.804C12.1355 22.3084 12.8476 22.5605 13.7302 22.5605C14.638 22.5605 15.3566 22.3084 15.8862 21.804C16.4157 21.2997 17.3865 21.0475 18.7986 21.0475C20.2107 21.0475 21.1816 21.2997 21.7111 21.804C22.2406 22.3084 22.9593 22.5605 23.8671 22.5605C24.7749 22.5605 25.4935 22.3084 26.0231 21.804C26.5526 21.2997 27.5234 21.0475 28.9355 21.0475C30.3476 21.0475 31.2932 21.2997 31.7723 21.804C32.2514 22.3084 32.9701 22.5605 33.9283 22.5605V25.5865C32.4406 25.5865 31.4632 25.3343 30.9962 24.83C30.5302 24.3256 29.8433 24.0735 28.9355 24.0735C28.0277 24.0735 27.3277 24.3256 26.8355 24.83C26.3443 25.3343 25.3548 25.5865 23.8671 25.5865C22.4298 25.5865 21.4529 25.3343 20.9365 24.83C20.419 24.3256 19.7064 24.0735 18.7986 24.0735C17.8404 24.0735 17.1283 24.3256 16.6623 24.83C16.1953 25.3343 15.2179 25.5865 13.7302 25.5865C12.2424 25.5865 11.253 25.3343 10.7617 24.83C10.2695 24.3256 9.56952 24.0735 8.66174 24.0735C7.75396 24.0735 7.06707 24.3256 6.60108 24.83C6.13407 25.3343 5.1567 25.5865 3.66895 25.5865ZM13.7302 18.7781C13.2006 18.7781 12.7341 18.6959 12.3307 18.5315C11.9272 18.3681 11.5112 18.1477 11.0825 17.8703L16.1131 12.8397L14.6001 11.3267L8.51044 8.9438V5.16138L16.8318 8.18731L26.5148 17.8703C26.0861 18.1477 25.67 18.3681 25.2666 18.5315C24.8631 18.6959 24.3966 18.7781 23.8671 18.7781C22.9593 18.7781 22.2406 18.5259 21.7111 18.0216C21.1816 17.5173 20.2107 17.2651 18.7986 17.2651C17.3865 17.2651 16.4157 17.5173 15.8862 18.0216C15.3566 18.5259 14.638 18.7781 13.7302 18.7781ZM25.9096 12.7262C24.8505 12.7262 23.9553 12.3606 23.2241 11.6293C22.4928 10.898 22.1272 10.0029 22.1272 8.9438C22.1272 7.90994 22.4928 7.02082 23.2241 6.27643C23.9553 5.53306 24.8505 5.16138 25.9096 5.16138C26.9687 5.16138 27.8638 5.53306 28.5951 6.27643C29.3264 7.02082 29.692 7.90994 29.692 8.9438C29.692 10.0029 29.3264 10.898 28.5951 11.6293C27.8638 12.3606 26.9687 12.7262 25.9096 12.7262Z" fill="#4F4F4F"/>
</g>
<rect x="-15.2435" y="-10.7248" width="523.487" height="59.0058" stroke="white" stroke-width="1.51297"/>
</g>
</g>
</g>
<defs>
<clipPath id="clip0_180_1667">
<rect width="1512" height="4764" fill="white" transform="translate(-141 -1172)"/>
</clipPath>
</defs>
</svg>
