<svg width="37" height="37" viewBox="0 0 37 37" fill="none" xmlns="http://www.w3.org/2000/svg">
<g clip-path="url(#clip0_558_4755)">
<path d="M10.6132 1.13979C14.1535 -1.59868 17.9965 1.74498 18.8589 6.94959C19.5095 6.94959 20.1449 7.13114 20.7198 7.464C21.5066 6.55622 22.2025 5.31558 21.9302 3.92365C21.2948 0.670769 24.941 -1.96179 28.4057 2.53172C31.1442 6.07207 27.8005 9.91501 22.5808 10.7774C22.5808 11.428 22.4144 12.0786 22.0664 12.6535C22.9741 13.4251 24.2148 14.1211 25.6067 13.8487C28.8293 13.2133 31.477 16.8444 26.9835 20.3242C23.4432 23.0627 19.6002 19.719 18.7378 14.5144C18.0873 14.5144 17.4518 14.3177 16.892 13.9849C16.1053 14.8927 15.3942 16.1484 15.6665 17.5404C16.302 20.7781 12.6557 23.4258 9.19101 18.9323C6.4374 15.3768 9.79619 11.5339 15.0159 10.6866C15.0159 10.036 15.2126 9.4006 15.5455 8.82567C14.6377 8.05405 13.3971 7.34296 11.99 7.61529C8.76738 8.25074 6.11968 4.61962 10.6132 1.13979ZM8.20758 24.3487H11.2335C12.036 24.3487 12.8057 24.6675 13.3732 25.235C13.9406 25.8025 14.2595 26.5721 14.2595 27.3747V36.4525H11.2335V33.4265H8.20758V36.4525H5.18164V27.3747C5.18164 26.5721 5.50044 25.8025 6.06792 25.235C6.63539 24.6675 7.40505 24.3487 8.20758 24.3487ZM8.20758 27.3747V30.4006H11.2335V27.3747H8.20758ZM20.2054 24.3487H23.3373L18.9043 36.4525H15.7724L20.2054 24.3487ZM27.8762 24.3487H32.4151V27.3747H27.8762V33.4265H32.4151V36.4525H27.8762C27.0736 36.4525 26.304 36.1337 25.7365 35.5662C25.169 34.9987 24.8502 34.2291 24.8502 33.4265V27.3747C24.8502 26.5721 25.169 25.8025 25.7365 25.235C26.304 24.6675 27.0736 24.3487 27.8762 24.3487Z" fill="#4F4F4F"/>
</g>
<defs>
<clipPath id="clip0_558_4755">
<rect width="36.3112" height="36.3112" fill="white" transform="translate(0.642578 0.141235)"/>
</clipPath>
</defs>
</svg>
