<svg width="48" height="48" viewBox="0 0 48 48" fill="none" xmlns="http://www.w3.org/2000/svg">
<path d="M24 4.5C20.1433 4.5 16.3731 5.64366 13.1664 7.78634C9.95963 9.92903 7.46027 12.9745 5.98436 16.5377C4.50845 20.1008 4.12228 24.0216 4.8747 27.8043C5.62711 31.5869 7.4843 35.0615 10.2114 37.7886C12.9386 40.5157 16.4131 42.3729 20.1957 43.1253C23.9784 43.8777 27.8992 43.4916 31.4623 42.0157C35.0255 40.5397 38.071 38.0404 40.2137 34.8336C42.3564 31.6269 43.5 27.8567 43.5 24C43.4901 18.8313 41.4325 13.8772 37.7776 10.2224C34.1228 6.56755 29.1687 4.50991 24 4.5ZM17.25 18C17.695 18 18.13 18.132 18.5 18.3792C18.8701 18.6264 19.1584 18.9778 19.3287 19.389C19.499 19.8001 19.5436 20.2525 19.4568 20.689C19.37 21.1254 19.1557 21.5263 18.841 21.841C18.5263 22.1557 18.1254 22.37 17.689 22.4568C17.2525 22.5436 16.8001 22.499 16.389 22.3287C15.9778 22.1584 15.6264 21.87 15.3792 21.5C15.132 21.13 15 20.695 15 20.25C15 19.6533 15.2371 19.081 15.659 18.659C16.081 18.2371 16.6533 18 17.25 18ZM33.0938 29.25C32.1723 30.8464 30.8467 32.1721 29.2504 33.0939C27.6541 34.0156 25.8433 34.5008 24 34.5008C22.1567 34.5008 20.3459 34.0156 18.7496 33.0939C17.1533 32.1721 15.8278 30.8464 14.9063 29.25C14.7889 29.0797 14.708 28.8869 14.6686 28.6839C14.6293 28.4808 14.6324 28.2718 14.6778 28.07C14.7231 27.8681 14.8097 27.6779 14.9321 27.5111C15.0545 27.3444 15.21 27.2047 15.389 27.101C15.5679 26.9972 15.7664 26.9316 15.9719 26.9083C16.1775 26.8849 16.3856 26.9043 16.5833 26.9653C16.7809 27.0262 16.9639 27.1274 17.1206 27.2625C17.2772 27.3975 17.4043 27.5635 17.4938 27.75C18.1544 28.8906 19.1032 29.8374 20.2451 30.4957C21.387 31.1539 22.6819 31.5004 24 31.5004C25.3181 31.5004 26.613 31.1539 27.7549 30.4957C28.8968 29.8374 29.8457 28.8906 30.5063 27.75C30.7205 27.4391 31.0442 27.2205 31.4125 27.1378C31.7809 27.055 32.1669 27.1142 32.4936 27.3036C32.8202 27.4929 33.0634 27.7985 33.1747 28.1593C33.2859 28.5201 33.257 28.9096 33.0938 29.25ZM33.75 21.75H27.75C27.3522 21.75 26.9707 21.592 26.6893 21.3107C26.408 21.0294 26.25 20.6478 26.25 20.25C26.25 19.8522 26.408 19.4706 26.6893 19.1893C26.9707 18.908 27.3522 18.75 27.75 18.75H33.75C34.1478 18.75 34.5294 18.908 34.8107 19.1893C35.092 19.4706 35.25 19.8522 35.25 20.25C35.25 20.6478 35.092 21.0294 34.8107 21.3107C34.5294 21.592 34.1478 21.75 33.75 21.75Z" fill="#4F4F4F"/>
</svg>
