<svg width="32" height="32" viewBox="0 0 32 32" fill="none" xmlns="http://www.w3.org/2000/svg">
<g clip-path="url(#clip0_1905_4469)">
<path d="M16.0493 1.33917C7.53053 1.33917 0.928711 7.56503 0.928711 15.9743C0.928711 20.3726 2.73612 24.1736 5.6781 26.7992C6.18607 27.2561 6.08144 27.5207 6.16782 30.3417C6.17463 30.5393 6.22967 30.7322 6.32815 30.9036C6.42664 31.0751 6.56557 31.2198 6.73284 31.3252C6.90011 31.4306 7.09062 31.4935 7.28777 31.5084C7.48492 31.5232 7.68272 31.4897 7.8639 31.4105C11.0827 29.9931 11.1241 29.8811 11.6697 30.0296C20.9951 32.5962 31.1029 26.6283 31.1029 15.9743C31.1029 7.56503 24.5686 1.33917 16.0493 1.33917ZM25.1283 12.6016L20.6873 19.6323C20.5196 19.8966 20.2991 20.1235 20.0396 20.2987C19.7802 20.4739 19.4873 20.5936 19.1794 20.6503C18.8715 20.707 18.5552 20.6995 18.2503 20.6283C17.9455 20.5571 17.6586 20.4236 17.4077 20.2364L13.8744 17.5919C13.7165 17.4734 13.5243 17.4094 13.3269 17.4094C13.1294 17.4094 12.9373 17.4734 12.7794 17.5919L8.01173 21.2079C7.3754 21.6903 6.54196 20.9281 6.97085 20.2546L11.4118 13.2239C11.5794 12.9595 11.7999 12.7325 12.0594 12.5573C12.3189 12.382 12.6118 12.2623 12.9197 12.2056C13.2276 12.1489 13.5439 12.1564 13.8488 12.2277C14.1537 12.2989 14.4406 12.4325 14.6914 12.6198L18.2235 15.2637C18.3815 15.3822 18.5736 15.4462 18.771 15.4462C18.9685 15.4462 19.1606 15.3822 19.3185 15.2637L24.0886 11.6513C24.7237 11.1659 25.5572 11.9275 25.1283 12.6016Z" fill="#0F0F0F"/>
</g>
<defs>
<clipPath id="clip0_1905_4469">
<rect width="31.1475" height="31.1475" fill="white" transform="translate(0.442383 0.852478)"/>
</clipPath>
</defs>
</svg>
