<svg width="32" height="32" viewBox="0 0 32 32" fill="none" xmlns="http://www.w3.org/2000/svg">
<path d="M15.7275 9.43024C11.8584 9.43024 8.73759 12.5511 8.73759 16.4202C8.73759 20.2893 11.8584 23.4101 15.7275 23.4101C19.5966 23.4101 22.7175 20.2893 22.7175 16.4202C22.7175 12.5511 19.5966 9.43024 15.7275 9.43024ZM15.7275 20.9646C13.2272 20.9646 11.1832 18.9266 11.1832 16.4202C11.1832 13.9138 13.2211 11.8758 15.7275 11.8758C18.2339 11.8758 20.2719 13.9138 20.2719 16.4202C20.2719 18.9266 18.2279 20.9646 15.7275 20.9646ZM24.6338 9.14431C24.6338 10.0508 23.9038 10.7747 23.0034 10.7747C22.097 10.7747 21.373 10.0447 21.373 9.14431C21.373 8.24396 22.103 7.51394 23.0034 7.51394C23.9038 7.51394 24.6338 8.24396 24.6338 9.14431ZM29.2633 10.799C29.1599 8.61505 28.6611 6.6805 27.0611 5.08662C25.4672 3.49274 23.5327 2.99389 21.3487 2.88439C19.0978 2.75664 12.3512 2.75664 10.1003 2.88439C7.9224 2.98781 5.98785 3.48666 4.38789 5.08053C2.78793 6.67441 2.29516 8.60897 2.18566 10.7929C2.05791 13.0438 2.05791 19.7904 2.18566 22.0413C2.28908 24.2253 2.78793 26.1599 4.38789 27.7537C5.98785 29.3476 7.91632 29.8465 10.1003 29.956C12.3512 30.0837 19.0978 30.0837 21.3487 29.956C23.5327 29.8526 25.4672 29.3537 27.0611 27.7537C28.655 26.1599 29.1538 24.2253 29.2633 22.0413C29.3911 19.7904 29.3911 13.0499 29.2633 10.799ZM26.3554 24.4565C25.8809 25.6489 24.9623 26.5675 23.7638 27.0481C21.9692 27.7598 17.7108 27.5956 15.7275 27.5956C13.7443 27.5956 9.47978 27.7537 7.69123 27.0481C6.49886 26.5735 5.58025 25.6549 5.09966 24.4565C4.38789 22.6619 4.55214 18.4034 4.55214 16.4202C4.55214 14.437 4.39397 10.1724 5.09966 8.38388C5.57417 7.19151 6.49278 6.2729 7.69123 5.7923C9.48586 5.08053 13.7443 5.24479 15.7275 5.24479C17.7108 5.24479 21.9753 5.08662 23.7638 5.7923C24.9562 6.26682 25.8748 7.18543 26.3554 8.38388C27.0672 10.1785 26.9029 14.437 26.9029 16.4202C26.9029 18.4034 27.0672 22.6679 26.3554 24.4565Z" fill="#0F0F0F"/>
</svg>
