<svg width="25" height="24" viewBox="0 0 25 24" fill="none" xmlns="http://www.w3.org/2000/svg">
<path d="M6.98047 21C8.08504 21 8.98047 20.1046 8.98047 19C8.98047 17.8954 8.08504 17 6.98047 17C5.8759 17 4.98047 17.8954 4.98047 19C4.98047 20.1046 5.8759 21 6.98047 21Z" stroke="#550076" stroke-width="2.7" stroke-linecap="round" stroke-linejoin="round"/>
<path d="M17.9805 21C19.085 21 19.9805 20.1046 19.9805 19C19.9805 17.8954 19.085 17 17.9805 17C16.8759 17 15.9805 17.8954 15.9805 19C15.9805 20.1046 16.8759 21 17.9805 21Z" stroke="#550076" stroke-width="2.7" stroke-linecap="round" stroke-linejoin="round"/>
<path d="M17.9805 17H6.98047V3H4.98047" stroke="#550076" stroke-width="2.7" stroke-linecap="round" stroke-linejoin="round"/>
<path d="M6.98047 5L20.9805 6L19.9805 13H6.98047" stroke="#550076" stroke-width="2.7" stroke-linecap="round" stroke-linejoin="round"/>
</svg>
