<svg width="43" height="43" viewBox="0 0 43 43" fill="none" xmlns="http://www.w3.org/2000/svg">
<path fill-rule="evenodd" clip-rule="evenodd" d="M21.5 43C33.3739 43 43 33.3739 43 21.5C43 9.62614 33.3739 2.84278e-06 21.5 1.64392e-06C9.62614 4.45056e-07 2.52626e-06 9.62614 1.62746e-06 21.5C7.28658e-07 33.3739 9.62614 43 21.5 43ZM17.1863 27.9363C16.8303 28.3049 16.6333 28.7987 16.6377 29.3111C16.6422 29.8236 16.8477 30.3138 17.2101 30.6762C17.5725 31.0386 18.0627 31.2442 18.5752 31.2486C19.0877 31.2531 19.5814 31.0561 19.95 30.7L27.7682 22.8819C28.1346 22.5153 28.3405 22.0183 28.3405 21.5C28.3405 20.9817 28.1346 20.4847 27.7682 20.1181L19.95 12.3C19.5814 11.9439 19.0877 11.7469 18.5752 11.7514C18.0627 11.7558 17.5725 11.9614 17.2101 12.3238C16.8477 12.6862 16.6422 13.1764 16.6377 13.6889C16.6333 14.2013 16.8303 14.6951 17.1863 15.0637L23.6226 21.5L17.1863 27.9363Z" fill="white"/>
</svg>
